<svg xmlns="http://www.w3.org/2000/svg" xmlns:xlink="http://www.w3.org/1999/xlink" width="2048" zoomAndPan="magnify" viewBox="0 0 1536 1535.999932" height="2048" preserveAspectRatio="xMidYMid meet" version="1.0"><defs><g/><clipPath id="id1"><path d="M 153.601562 153.601562 L 1382.101562 153.601562 L 1382.101562 1382.101562 L 153.601562 1382.101562 Z M 153.601562 153.601562 " clip-rule="nonzero"/></clipPath><clipPath id="id2"><path d="M 78.609375 351.269531 L 593.109375 351.269531 L 593.109375 477.269531 L 78.609375 477.269531 Z M 78.609375 351.269531 " clip-rule="nonzero"/></clipPath><clipPath id="id3"><path d="M 545.015625 906.367188 L 572.296875 906.367188 L 572.296875 926.59375 L 545.015625 926.59375 Z M 545.015625 906.367188 " clip-rule="nonzero"/></clipPath><clipPath id="id4"><path d="M 585.453125 747 L 765.519531 747 L 765.519531 926.59375 L 585.453125 926.59375 Z M 585.453125 747 " clip-rule="nonzero"/></clipPath></defs><rect x="-153.6" width="1843.2" fill="#ffffff" y="-153.599993" height="1843.199919" fill-opacity="1"/><rect x="-153.6" width="1843.2" fill="#8da4ee" y="-153.599993" height="1843.199919" fill-opacity="1"/><rect x="-153.6" width="1843.2" fill="#ffffff" y="-153.599993" height="1843.199919" fill-opacity="1"/><rect x="-153.6" width="1843.2" fill="#8da4ee" y="-153.599993" height="1843.199919" fill-opacity="1"/><g clip-path="url(#id1)"><path fill="#ffffff" d="M 153.601562 153.601562 L 1382.101562 153.601562 L 1382.101562 1382.101562 L 153.601562 1382.101562 L 153.601562 153.601562 " fill-opacity="1" fill-rule="nonzero"/></g><g clip-path="url(#id2)"><path fill="#8da4ee" d="M 78.609375 351.269531 L 593.109375 351.269531 L 593.109375 477.269531 L 78.609375 477.269531 L 78.609375 351.269531 " fill-opacity="1" fill-rule="nonzero"/></g><g fill="#ffffff" fill-opacity="1"><g transform="translate(189.086208, 435.151407)"><g><path d="M 54.625 -32.421875 L 42.515625 0 L 36.890625 0 L 27.53125 -24.59375 L 18.046875 0 L 12.421875 0 L 0.359375 -32.421875 L 5.9375 -32.421875 L 15.359375 -6.609375 L 25.140625 -32.421875 L 30.09375 -32.421875 L 39.703125 -6.484375 L 49.359375 -32.421875 Z M 54.625 -32.421875 "/></g></g></g><g fill="#ffffff" fill-opacity="1"><g transform="translate(244.079733, 435.151407)"><g><path d="M 22.875 -32.734375 C 27 -32.734375 30.273438 -31.535156 32.703125 -29.140625 C 35.128906 -26.753906 36.34375 -23.257812 36.34375 -18.65625 L 36.34375 0 L 30.46875 0 L 30.46875 -17.984375 C 30.46875 -21.117188 29.710938 -23.484375 28.203125 -25.078125 C 26.691406 -26.671875 24.53125 -27.46875 21.71875 -27.46875 C 18.53125 -27.46875 16.019531 -26.539062 14.1875 -24.6875 C 12.351562 -22.832031 11.4375 -20.171875 11.4375 -16.703125 L 11.4375 0 L 5.5625 0 L 5.5625 -45.390625 L 11.4375 -45.390625 L 11.4375 -27.828125 C 12.664062 -29.378906 14.265625 -30.582031 16.234375 -31.4375 C 18.210938 -32.300781 20.425781 -32.734375 22.875 -32.734375 Z M 22.875 -32.734375 "/></g></g></g><g fill="#ffffff" fill-opacity="1"><g transform="translate(285.737792, 435.151407)"><g><path d="M 5.5625 -32.421875 L 11.4375 -32.421875 L 11.4375 0 L 5.5625 0 Z M 8.515625 -38.65625 C 7.367188 -38.65625 6.414062 -39.019531 5.65625 -39.75 C 4.90625 -40.488281 4.53125 -41.390625 4.53125 -42.453125 C 4.53125 -43.515625 4.90625 -44.421875 5.65625 -45.171875 C 6.414062 -45.929688 7.367188 -46.3125 8.515625 -46.3125 C 9.648438 -46.3125 10.59375 -45.953125 11.34375 -45.234375 C 12.101562 -44.523438 12.484375 -43.640625 12.484375 -42.578125 C 12.484375 -41.472656 12.101562 -40.539062 11.34375 -39.78125 C 10.59375 -39.03125 9.648438 -38.65625 8.515625 -38.65625 Z M 8.515625 -38.65625 "/></g></g></g><g fill="#ffffff" fill-opacity="1"><g transform="translate(302.804743, 435.151407)"><g><path d="M 23.796875 -1.890625 C 22.941406 -1.160156 21.878906 -0.601562 20.609375 -0.21875 C 19.347656 0.164062 18.046875 0.359375 16.703125 0.359375 C 13.441406 0.359375 10.910156 -0.515625 9.109375 -2.265625 C 7.316406 -4.015625 6.421875 -6.519531 6.421875 -9.78125 L 6.421875 -27.59375 L 0.921875 -27.59375 L 0.921875 -32.421875 L 6.421875 -32.421875 L 6.421875 -39.515625 L 12.296875 -39.515625 L 12.296875 -32.421875 L 21.59375 -32.421875 L 21.59375 -27.59375 L 12.296875 -27.59375 L 12.296875 -10.03125 C 12.296875 -8.28125 12.734375 -6.9375 13.609375 -6 C 14.484375 -5.0625 15.738281 -4.59375 17.375 -4.59375 C 19.164062 -4.59375 20.691406 -5.097656 21.953125 -6.109375 Z M 23.796875 -1.890625 "/></g></g></g><g fill="#ffffff" fill-opacity="1"><g transform="translate(328.129898, 435.151407)"><g><path d="M 34.875 -16.03125 C 34.875 -15.582031 34.832031 -14.988281 34.75 -14.25 L 8.4375 -14.25 C 8.8125 -11.394531 10.066406 -9.097656 12.203125 -7.359375 C 14.347656 -5.628906 17.007812 -4.765625 20.1875 -4.765625 C 24.0625 -4.765625 27.179688 -6.070312 29.546875 -8.6875 L 32.78125 -4.890625 C 31.3125 -3.179688 29.488281 -1.878906 27.3125 -0.984375 C 25.132812 -0.0859375 22.695312 0.359375 20 0.359375 C 16.570312 0.359375 13.53125 -0.34375 10.875 -1.75 C 8.226562 -3.15625 6.179688 -5.117188 4.734375 -7.640625 C 3.285156 -10.171875 2.5625 -13.023438 2.5625 -16.203125 C 2.5625 -19.347656 3.265625 -22.179688 4.671875 -24.703125 C 6.085938 -27.234375 8.023438 -29.203125 10.484375 -30.609375 C 12.953125 -32.023438 15.738281 -32.734375 18.84375 -32.734375 C 21.9375 -32.734375 24.695312 -32.023438 27.125 -30.609375 C 29.550781 -29.203125 31.445312 -27.234375 32.8125 -24.703125 C 34.1875 -22.179688 34.875 -19.289062 34.875 -16.03125 Z M 18.84375 -27.765625 C 16.03125 -27.765625 13.675781 -26.910156 11.78125 -25.203125 C 9.882812 -23.492188 8.769531 -21.25 8.4375 -18.46875 L 29.234375 -18.46875 C 28.910156 -21.207031 27.800781 -23.441406 25.90625 -25.171875 C 24.007812 -26.898438 21.65625 -27.765625 18.84375 -27.765625 Z M 18.84375 -27.765625 "/></g></g></g><g fill="#ffffff" fill-opacity="1"><g transform="translate(365.567089, 435.151407)"><g><path d="M 22.75 -32.734375 C 25.894531 -32.734375 28.707031 -32.035156 31.1875 -30.640625 C 33.675781 -29.253906 35.625 -27.316406 37.03125 -24.828125 C 38.445312 -22.347656 39.15625 -19.472656 39.15625 -16.203125 C 39.15625 -12.941406 38.445312 -10.054688 37.03125 -7.546875 C 35.625 -5.046875 33.675781 -3.101562 31.1875 -1.71875 C 28.707031 -0.332031 25.894531 0.359375 22.75 0.359375 C 20.34375 0.359375 18.140625 -0.109375 16.140625 -1.046875 C 14.148438 -1.984375 12.5 -3.347656 11.1875 -5.140625 L 11.1875 0 L 5.5625 0 L 5.5625 -45.390625 L 11.4375 -45.390625 L 11.4375 -27.53125 C 12.738281 -29.238281 14.367188 -30.53125 16.328125 -31.40625 C 18.285156 -32.289062 20.425781 -32.734375 22.75 -32.734375 Z M 22.265625 -4.765625 C 24.347656 -4.765625 26.210938 -5.242188 27.859375 -6.203125 C 29.515625 -7.160156 30.820312 -8.503906 31.78125 -10.234375 C 32.738281 -11.972656 33.21875 -13.960938 33.21875 -16.203125 C 33.21875 -18.453125 32.738281 -20.441406 31.78125 -22.171875 C 30.820312 -23.910156 29.515625 -25.25 27.859375 -26.1875 C 26.210938 -27.125 24.347656 -27.59375 22.265625 -27.59375 C 20.222656 -27.59375 18.363281 -27.125 16.6875 -26.1875 C 15.019531 -25.25 13.71875 -23.910156 12.78125 -22.171875 C 11.84375 -20.441406 11.375 -18.453125 11.375 -16.203125 C 11.375 -13.960938 11.84375 -11.972656 12.78125 -10.234375 C 13.71875 -8.503906 15.019531 -7.160156 16.6875 -6.203125 C 18.363281 -5.242188 20.222656 -4.765625 22.265625 -4.765625 Z M 22.265625 -4.765625 "/></g></g></g><g fill="#ffffff" fill-opacity="1"><g transform="translate(407.286316, 435.151407)"><g><path d="M 19.453125 0.359375 C 16.234375 0.359375 13.335938 -0.351562 10.765625 -1.78125 C 8.191406 -3.207031 6.179688 -5.171875 4.734375 -7.671875 C 3.285156 -10.179688 2.5625 -13.023438 2.5625 -16.203125 C 2.5625 -19.390625 3.285156 -22.234375 4.734375 -24.734375 C 6.179688 -27.242188 8.191406 -29.203125 10.765625 -30.609375 C 13.335938 -32.023438 16.234375 -32.734375 19.453125 -32.734375 C 22.671875 -32.734375 25.554688 -32.023438 28.109375 -30.609375 C 30.660156 -29.203125 32.660156 -27.242188 34.109375 -24.734375 C 35.554688 -22.234375 36.28125 -19.390625 36.28125 -16.203125 C 36.28125 -13.023438 35.554688 -10.179688 34.109375 -7.671875 C 32.660156 -5.171875 30.660156 -3.207031 28.109375 -1.78125 C 25.554688 -0.351562 22.671875 0.359375 19.453125 0.359375 Z M 19.453125 -4.765625 C 21.535156 -4.765625 23.398438 -5.242188 25.046875 -6.203125 C 26.703125 -7.160156 28 -8.503906 28.9375 -10.234375 C 29.875 -11.972656 30.34375 -13.960938 30.34375 -16.203125 C 30.34375 -18.453125 29.875 -20.441406 28.9375 -22.171875 C 28 -23.910156 26.703125 -25.25 25.046875 -26.1875 C 23.398438 -27.125 21.535156 -27.59375 19.453125 -27.59375 C 17.367188 -27.59375 15.5 -27.125 13.84375 -26.1875 C 12.195312 -25.25 10.894531 -23.910156 9.9375 -22.171875 C 8.976562 -20.441406 8.5 -18.453125 8.5 -16.203125 C 8.5 -13.960938 8.976562 -11.972656 9.9375 -10.234375 C 10.894531 -8.503906 12.195312 -7.160156 13.84375 -6.203125 C 15.5 -5.242188 17.367188 -4.765625 19.453125 -4.765625 Z M 19.453125 -4.765625 "/></g></g></g><g fill="#ffffff" fill-opacity="1"><g transform="translate(446.130468, 435.151407)"><g><path d="M 19.453125 0.359375 C 16.234375 0.359375 13.335938 -0.351562 10.765625 -1.78125 C 8.191406 -3.207031 6.179688 -5.171875 4.734375 -7.671875 C 3.285156 -10.179688 2.5625 -13.023438 2.5625 -16.203125 C 2.5625 -19.390625 3.285156 -22.234375 4.734375 -24.734375 C 6.179688 -27.242188 8.191406 -29.203125 10.765625 -30.609375 C 13.335938 -32.023438 16.234375 -32.734375 19.453125 -32.734375 C 22.671875 -32.734375 25.554688 -32.023438 28.109375 -30.609375 C 30.660156 -29.203125 32.660156 -27.242188 34.109375 -24.734375 C 35.554688 -22.234375 36.28125 -19.390625 36.28125 -16.203125 C 36.28125 -13.023438 35.554688 -10.179688 34.109375 -7.671875 C 32.660156 -5.171875 30.660156 -3.207031 28.109375 -1.78125 C 25.554688 -0.351562 22.671875 0.359375 19.453125 0.359375 Z M 19.453125 -4.765625 C 21.535156 -4.765625 23.398438 -5.242188 25.046875 -6.203125 C 26.703125 -7.160156 28 -8.503906 28.9375 -10.234375 C 29.875 -11.972656 30.34375 -13.960938 30.34375 -16.203125 C 30.34375 -18.453125 29.875 -20.441406 28.9375 -22.171875 C 28 -23.910156 26.703125 -25.25 25.046875 -26.1875 C 23.398438 -27.125 21.535156 -27.59375 19.453125 -27.59375 C 17.367188 -27.59375 15.5 -27.125 13.84375 -26.1875 C 12.195312 -25.25 10.894531 -23.910156 9.9375 -22.171875 C 8.976562 -20.441406 8.5 -18.453125 8.5 -16.203125 C 8.5 -13.960938 8.976562 -11.972656 9.9375 -10.234375 C 10.894531 -8.503906 12.195312 -7.160156 13.84375 -6.203125 C 15.5 -5.242188 17.367188 -4.765625 19.453125 -4.765625 Z M 19.453125 -4.765625 "/></g></g></g><g fill="#ffffff" fill-opacity="1"><g transform="translate(484.974619, 435.151407)"><g><path d="M 18.171875 -15.109375 L 11.4375 -8.875 L 11.4375 0 L 5.5625 0 L 5.5625 -45.390625 L 11.4375 -45.390625 L 11.4375 -16.265625 L 29.125 -32.421875 L 36.21875 -32.421875 L 22.578125 -19.03125 L 37.5625 0 L 30.34375 0 Z M 18.171875 -15.109375 "/></g></g></g><g clip-path="url(#id3)"><path fill="#8ea4ee" d="M 572.140625 1064.769531 L 572.140625 1165.449219 C 572.140625 1178.191406 561.816406 1188.382812 549.238281 1188.382812 L 510.601562 1188.382812 C 497.882812 1188.382812 487.699219 1178.035156 487.699219 1165.449219 L 487.699219 1099.378906 C 487.699219 1063.117188 474.671875 1047.683594 436.644531 1047.683594 C 412.988281 1047.683594 388.136719 1057.425781 371.511719 1071.804688 C 369.714844 1073.460938 368.667969 1075.699219 368.667969 1078.105469 L 368.667969 1165.605469 C 368.667969 1178.335938 358.339844 1188.527344 345.761719 1188.527344 L 307.28125 1188.527344 C 294.554688 1188.527344 284.371094 1178.191406 284.371094 1165.605469 L 284.371094 929.621094 C 284.371094 916.878906 294.703125 906.695312 307.28125 906.695312 L 345.761719 906.695312 C 358.484375 906.695312 368.667969 917.03125 368.667969 929.621094 L 368.667969 991.5 C 368.667969 997.34375 374.953125 1000.9375 380.050781 997.9375 C 403.558594 983.855469 432.75 973.519531 470.777344 973.519531 C 518.246094 973.519531 572.140625 988.355469 572.140625 1064.769531 Z M 572.140625 1064.769531 " fill-opacity="1" fill-rule="nonzero"/></g><g clip-path="url(#id4)"><path fill="#8ea4ee" d="M 718.269531 927.070312 L 632.628906 927.070312 C 606.726562 927.070312 585.765625 906.09375 585.765625 880.171875 L 585.765625 794.46875 C 585.765625 768.546875 606.726562 747.570312 632.628906 747.570312 L 718.269531 747.570312 C 744.171875 747.570312 765.132812 768.546875 765.132812 794.46875 L 765.132812 880.171875 C 765.132812 906.09375 744.171875 927.070312 718.269531 927.070312 Z M 718.269531 927.070312 " fill-opacity="1" fill-rule="nonzero"/></g><path fill="#8ea4ee" d="M 916.957031 863.691406 L 831.3125 863.691406 C 805.410156 863.691406 784.449219 842.714844 784.449219 816.792969 L 784.449219 731.09375 C 784.449219 705.167969 805.410156 684.191406 831.3125 684.191406 L 916.957031 684.191406 C 942.859375 684.191406 963.820312 705.167969 963.820312 731.09375 L 963.820312 816.792969 C 963.820312 842.714844 942.859375 863.691406 916.957031 863.691406 Z M 916.957031 863.691406 " fill-opacity="1" fill-rule="nonzero"/></svg>